<?xml version="1.0" standalone="no"?>
<!DOCTYPE svg PUBLIC "-//W3C//DTD SVG 20010904//EN"
 "http://www.w3.org/TR/2001/REC-SVG-20010904/DTD/svg10.dtd">
<svg version="1.0" xmlns="http://www.w3.org/2000/svg"
 width="600.000000pt" height="600.000000pt" viewBox="0 0 600.000000 600.000000"
 preserveAspectRatio="xMidYMid meet">
<g transform="translate(0.000000,600.000000) scale(0.050000,-0.050000)"
fill="#000000" stroke="none">
<path d="M5820 9774 c-5 -5 -72 -15 -148 -22 -3003 -272 -4474 -3798 -2547
-6104 1754 -2099 5071 -1697 6277 762 1137 2319 -381 5028 -2992 5341 -137 16
-579 34 -590 23z m490 -255 c2865 -270 4236 -3620 2359 -5767 -1933 -2211
-5535 -1242 -6110 1645 -444 2223 1480 4336 3751 4122z"/>
<path d="M5710 9167 c-2664 -320 -3797 -3446 -1934 -5334 1894 -1920 5166
-721 5385 1975 155 1910 -1566 3585 -3451 3359z m911 -216 c2159 -450 3103
-2989 1759 -4728 -1347 -1743 -4036 -1485 -5038 483 -1121 2201 849 4752 3279
4245z"/>
<path d="M5951 8669 c-37 -38 -38 -62 -8 -208 52 -257 -74 -419 -473 -611
-483 -233 -687 -485 -694 -858 l-2 -124 -90 -37 c-277 -115 -579 -451 -633
-706 -10 -45 -68 -119 -189 -240 -454 -454 -512 -1062 -141 -1455 701 -740
3274 -823 4370 -140 538 335 678 961 353 1580 -142 270 -508 570 -695 570 -44
0 -46 6 -36 96 42 353 -251 739 -603 794 -173 27 -171 26 -149 82 59 155 2
461 -127 688 -200 351 -747 704 -883 569z m368 -318 c819 -630 436 -1378 -816
-1592 -464 -80 -515 -58 -499 217 16 274 173 475 505 647 470 243 671 459 671
722 0 116 -4 116 139 6z m851 -1258 c342 -159 384 -580 87 -865 -684 -655
-2750 -941 -2971 -411 -95 226 143 644 456 804 l80 41 55 -59 c101 -107 237
-120 633 -61 539 82 1094 320 1271 545 57 72 241 75 389 6z m685 -923 c478
-219 677 -1025 354 -1436 -692 -881 -3997 -857 -4428 33 -126 261 -47 661 181
921 l82 92 51 -102 c132 -266 432 -367 1085 -366 1014 1 2002 348 2371 832 87
114 109 116 304 26z"/>
</g>
</svg>
